<svg width="1600" height="1800" viewBox="0 0 1600 1800" fill="none" xmlns="http://www.w3.org/2000/svg">
  <rect width="1600" height="1800" fill="#F3EEE6"/>
  <rect x="80" y="80" width="1440" height="1640" rx="72" fill="url(#paint0_linear)"/>
  <circle cx="1230" cy="390" r="240" fill="#E6DED1"/>
  <circle cx="470" cy="1320" r="300" fill="#DCE4D8"/>
  <path d="M328 1120C328 989.661 433.661 884 564 884H1036C1166.34 884 1272 989.661 1272 1120V1484H328V1120Z" fill="#F8F5EF"/>
  <rect x="450" y="625" width="700" height="164" rx="82" fill="#F8F5EF"/>
  <rect x="502" y="677" width="596" height="60" rx="30" fill="#D7CCBF"/>
  <rect x="446" y="995" width="708" height="412" rx="54" fill="#EBE3D8"/>
  <path d="M446 1140C570 1036 666 1014 768 1054C896 1105 982 1244 1154 1170V1353C1025.33 1431.67 928.667 1469 864 1465C749.333 1457.67 679.333 1368.67 579 1353C527.667 1344.33 483.333 1357.67 446 1393V1140Z" fill="#8A9A8C"/>
  <path d="M446 1275C515.333 1235.67 589.333 1216 668 1216C809.333 1216 891.333 1331.67 1036 1335C1072.67 1335.67 1112 1328.33 1154 1313V1484H446V1275Z" fill="#5D705F"/>
  <rect x="192" y="165" width="354" height="112" rx="56" fill="#FFFFFF" fill-opacity="0.72"/>
  <text x="369" y="233" fill="#2B342F" font-family="Arial, sans-serif" font-size="40" font-weight="700" text-anchor="middle">Hero Placeholder</text>
  <text x="800" y="1604" fill="#2B342F" font-family="Arial, sans-serif" font-size="46" font-weight="700" text-anchor="middle">Replace with clinic or treatment imagery</text>
  <defs>
    <linearGradient id="paint0_linear" x1="800" y1="80" x2="800" y2="1720" gradientUnits="userSpaceOnUse">
      <stop stop-color="#F7F3EC"/>
      <stop offset="1" stop-color="#EDE5DA"/>
    </linearGradient>
  </defs>
</svg>
